<?xml version="1.0" encoding="utf-8"?>
<!DOCTYPE svg PUBLIC "-//W3C//DTD SVG 1.0//EN" "http://www.w3.org/TR/2001/REC-SVG-20010904/DTD/svg10.dtd">
<svg version="1.0" xmlns="http://www.w3.org/2000/svg" width="500px" height="500px" viewBox="0 0 500 500" preserveAspectRatio="xMidYMid meet">
 <g fill="#ffffff">
  <path d="M216 479.5 c-99.4 -13.8 -178.8 -91.4 -196.2 -192 -1.9 -11.2 -2.2 -16.6 -2.2 -39 -0.1 -17.2 0.4 -28.4 1.2 -33 0.8 -3.8 2 -10.6 2.9 -15 1.9 -10.2 7.9 -29.7 13 -42 3.2 -7.6 12.7 -26.7 15.2 -30.3 1 -1.5 3.1 -4.7 4.7 -7.2 17.4 -26.8 41.3 -50 72.7 -70.5 11.6 -7.6 41.7 -21.1 54.7 -24.5 1.9 -0.5 6 -1.6 9 -2.5 3 -0.8 10.9 -2.5 17.5 -3.7 10.7 -2 15.3 -2.3 41 -2.2 26 0 30.2 0.2 40.5 2.2 12.6 2.5 28.4 6.8 38.8 10.6 15 5.4 44.8 21 55.5 29 27.4 20.5 49 43.9 65.2 70.7 9.5 15.6 18.8 37.1 24.2 55.9 3.8 13.4 4.1 14.9 6 26.5 2.6 17.1 2.3 58.6 -0.6 76 -3.1 18.7 -7.8 34 -16.4 54 -11.9 27.7 -26.2 48.3 -49.6 71.5 -26.4 26.3 -57.8 45.5 -93 56.9 -5.1 1.7 -10.2 3.1 -11.3 3.1 -1.1 0 -2.8 0.5 -3.8 1 -1 0.6 -7.2 2 -13.7 3.1 -15.6 2.8 -59.2 3.6 -75.3 1.4z m48.3 -32.5 c23.1 -1.7 48.8 -8.5 70.7 -18.7 19.4 -9.2 38.8 -23.1 55.5 -39.9 33.3 -33.4 53 -76.3 56.7 -123.4 3.6 -47 -10.9 -97.1 -38.8 -133.6 -6.1 -8.2 -16.1 -19.7 -20.1 -23.5 -11.3 -10.6 -30 -24.7 -39.3 -29.8 -26.6 -14.4 -47.8 -21.6 -74 -25.2 -12 -1.7 -40.7 -1.7 -52.5 0 -74.1 10.4 -137.3 61.9 -160.9 131.1 -12.9 38 -14.6 77.2 -5 115 8.9 34.8 24.9 63 50.9 89.9 14.5 14.9 30.8 26.8 52.5 38.1 23.7 12.4 54.8 19.9 86 20.9 2.5 0 10.7 -0.4 18.3 -0.9z"/>
  <path d="M224.6 430.4 c-0.3 -0.9 -0.6 -36.9 -0.6 -80 l0 -78.4 -17.2 0.2 -17.3 0.3 0.3 51.5 c0.3 34.6 0 52.4 -0.7 54.3 l-1.1 2.7 -17.9 0 c-14.6 0 -18.1 -0.3 -19.1 -1.5 -1.5 -1.8 -2.7 -121.2 -1.3 -133.5 l0.8 -7.5 36.5 -0.5 36.5 -0.5 0.3 -9.7 0.3 -9.8 -53.6 0 -53.5 0 -0.2 60.3 -0.3 60.2 -18.6 0.3 c-15.8 0.2 -18.8 0 -19.9 -1.3 -1 -1.2 -1.3 -16.9 -1.1 -76.7 0 -41.3 0.4 -75.4 0.7 -75.7 0.3 -0.3 17.6 -0.8 38.5 -1.1 l38 -0.5 7.4 -17.4 c4.1 -9.5 7.5 -17.7 7.5 -18.2 0 -0.5 -10.3 -0.9 -23 -0.9 l-22.9 0 -0.6 -3.2 c-0.3 -1.8 -0.5 -9.8 -0.3 -17.8 l0.3 -14.5 48.3 -0.3 48.2 -0.2 0 -13.5 c0 -12.4 0.2 -13.5 2 -14.5 2.5 -1.3 47.7 -1.2 50.2 0.1 1.5 0.8 1.8 2.8 2 14.2 l0.3 13.2 49 0.5 49 0.5 0.3 17.7 c0.2 13.9 0 17.8 -1 17.9 -0.7 0 -10.7 0.2 -22.3 0.3 -13.7 0.2 -21 0.7 -21.3 1.4 -0.2 0.6 0.8 3.2 2.1 5.9 1.4 2.6 4.8 10.3 7.7 17.1 l5.2 12.2 13.7 0.2 c7.5 0.1 23.4 0.1 35.3 -0.1 16.5 -0.3 22.1 -0.1 23.3 0.9 1.3 1.1 1.5 9.5 1.5 68.2 0 46.8 -0.3 68.3 -1.1 71.4 -1.3 5.1 -6.4 10.8 -11.6 13 -2.2 1 -7.7 1.4 -17.8 1.4 l-14.6 0 -3 -6.7 c-1.7 -3.8 -4 -8.8 -5.1 -11.3 -9.3 -20.1 -9.5 -19 3.2 -19 l10 0 -0.2 -41.7 -0.3 -41.8 -53.5 0 -53.5 0 0.2 9 c0.1 5 0.3 9.3 0.3 9.7 0 0.4 16.8 0.9 37.3 1 l37.2 0.3 0.3 62.4 c0.1 40.4 -0.1 63.7 -0.8 66.1 -1.3 4.7 -8.2 11.1 -13.8 12.8 -5.4 1.6 -27.4 1.6 -29.3 0 -2.2 -1.8 -16.1 -32.5 -15.7 -34.6 0.3 -1.4 1.9 -1.8 9.8 -2.2 l9.5 -0.5 0.7 -25.5 c0.4 -14 0.5 -29.8 0.4 -35 l-0.4 -9.5 -17.6 -0.3 -17.6 -0.2 0 78.4 c0 43.1 -0.3 79.1 -0.6 80 -0.5 1.4 -3.4 1.6 -21.9 1.6 -18.5 0 -21.4 -0.2 -21.9 -1.6z m71.4 -246.9 c0 -0.9 -0.7 -2.9 -1.5 -4.3 -0.8 -1.5 -4.1 -8.5 -7.5 -15.7 -3.3 -7.1 -6.4 -13.7 -6.9 -14.5 -0.7 -1.3 -5.5 -1.5 -33.7 -1.5 l-32.9 0 -2.3 4.5 c-3.6 7.3 -12.8 27.3 -13.6 29.7 l-0.7 2.3 16.8 0.2 c71.2 1.2 82.3 1.1 82.3 -0.7z"/>
 </g>
</svg>