<?xml version="1.0" encoding="utf-8"?>
<!DOCTYPE svg PUBLIC "-//W3C//DTD SVG 1.0//EN" "http://www.w3.org/TR/2001/REC-SVG-20010904/DTD/svg10.dtd">
<svg version="1.0" xmlns="http://www.w3.org/2000/svg" width="1000px" height="1000px" viewBox="0 0 500 500" preserveAspectRatio="xMidYMid meet">
 <g fill="#000000">
  <path d="M0 250 l0 -250 250 0 250 0 0 250 0 250 -250 0 -250 0 0 -250z m288.3 225.1 c6.5 -1.2 12.7 -2.5 13.7 -3.1 1 -0.5 2.7 -1 3.8 -1 1.1 0 6.2 -1.4 11.3 -3.1 35.2 -11.4 66.6 -30.6 93 -56.9 23.4 -23.2 37.7 -43.8 49.6 -71.5 8.6 -20 13.3 -35.3 16.4 -54 3.9 -23.1 2.8 -65.2 -2.1 -84.3 -6 -23.5 -12.7 -40.9 -23 -60.1 -16.2 -29.8 -39.2 -55.9 -69.7 -78.7 -10.7 -8 -40.5 -23.6 -55.5 -29 -10.4 -3.8 -26.2 -8.1 -38.8 -10.6 -10.1 -1.9 -14.7 -2.2 -37.5 -2.2 -26.9 -0.1 -38.9 1.2 -55.5 5.9 -3 0.9 -7.1 2 -9 2.5 -13 3.4 -43.1 16.9 -54.7 24.5 -31.4 20.5 -55.3 43.7 -72.7 70.5 -1.6 2.5 -3.7 5.7 -4.7 7.2 -4.8 7 -15.7 30.5 -19.7 42.3 -6.5 19.4 -7 21.4 -11.3 45 -0.9 4.4 -1.3 15.4 -1.3 30 0 19.2 0.4 25.1 2.2 36 8.4 48.8 30.7 91.8 65.6 126.7 35.4 35.4 81.5 58.4 130.6 65.3 15.7 2.1 53.6 1.4 69.3 -1.4z"/>
  <path d="M227.5 449.9 c-22.5 -1.7 -51.2 -9.8 -70.5 -19.9 -21.7 -11.3 -38 -23.2 -52.5 -38.1 -31 -32 -48.1 -66.5 -55.1 -110.9 -2.5 -15.8 -2.5 -46.1 0 -62 6.9 -44.5 25.7 -82.3 55.8 -112.2 31.2 -30.9 71.2 -50.8 114.3 -57 11.9 -1.6 46.4 -1.6 58.5 0.1 26.3 3.7 47.4 10.9 74 25.2 9.3 5.1 28 19.2 39.3 29.8 4 3.8 14 15.3 20.1 23.5 22.3 29.2 36.1 66.8 38.9 106 4.2 60.8 -15.6 115.6 -56.8 157 -23.5 23.7 -48.4 39.1 -79.3 49.1 -27.8 9.1 -53.8 11.9 -86.7 9.4z m37.9 -22.5 c0.3 -0.9 0.6 -36.9 0.6 -80 l0 -78.4 20.8 0.2 20.7 0.3 0.2 10.5 c0.2 5.8 -0.1 22.9 -0.5 38 l-0.7 27.5 -9.2 0.5 -9.3 0.5 6.9 14.9 c3.8 8.2 7.5 15.3 8.3 15.7 2 1.3 18.5 1.1 23 -0.3 5.6 -1.7 12.5 -8.1 13.8 -12.8 0.7 -2.4 0.9 -24.8 0.8 -63.1 l-0.3 -59.4 -37.2 -0.3 -37.3 -0.2 -0.4 -2.3 c-0.3 -1.2 -0.4 -6.9 -0.3 -12.7 l0.2 -10.5 56.5 0 56.5 0 0.3 44.8 0.2 44.7 -9.5 0 -9.5 0 1.4 3.3 c0.7 1.7 2.7 6.1 4.3 9.7 1.7 3.6 4.2 9.1 5.6 12.3 l2.6 5.7 11.6 0 c7.5 0 12.7 -0.5 14.8 -1.4 5.2 -2.2 10.3 -7.9 11.6 -13 0.8 -3.1 1.1 -23.8 1.1 -68.4 0 -56.3 -0.2 -64.1 -1.5 -65.2 -1.2 -1 -5.6 -1.2 -18.6 -0.7 -9.4 0.3 -25.4 0.3 -35.4 0 l-18.4 -0.6 -5.2 -12.1 c-2.8 -6.7 -6.2 -14.3 -7.6 -16.9 -1.7 -3.4 -2.3 -6.1 -2.1 -9 l0.3 -4.2 10.5 0 c5.8 0 15.8 -0.1 22.3 -0.3 l11.8 -0.2 -0.3 -14.7 -0.3 -14.8 -49 -0.5 -49 -0.5 -0.5 -13.5 -0.5 -13.5 -5 -0.7 c-8.2 -1 -38.4 -0.9 -40.6 0.2 -1.7 1 -1.9 2.2 -1.9 14.5 l0 13.5 -48.2 0.2 -48.3 0.3 -0.3 11.5 c-0.2 6.3 0 13 0.3 14.8 l0.6 3.2 22.9 0 23 0 0 3.9 c0 2.6 -2.5 9.6 -7.5 21.2 l-7.4 17.4 -38 0.5 c-20.9 0.3 -38.2 0.8 -38.5 1.1 -0.3 0.3 -0.6 33.1 -0.7 72.8 0 55 0.3 72.6 1.2 73.7 1 1.2 4.1 1.4 16.8 1.2 l15.6 -0.3 0.3 -60.2 0.2 -60.3 56.5 0 56.6 0 -0.3 12.8 -0.3 12.7 -36.5 0.5 -36.5 0.5 -0.8 7.5 c-1.4 12.1 -0.2 125.7 1.3 127.5 1.7 2 30.4 2.2 31.7 0.3 0.4 -0.7 0.8 -25.1 0.8 -54.3 l0 -53 20.3 -0.3 20.2 -0.2 0 78.4 c0 43.1 0.3 79.1 0.6 80 0.5 1.4 3.1 1.6 18.9 1.6 15.8 0 18.4 -0.2 18.9 -1.6z"/>
  <path d="M210.6 187.2 l-16.8 -0.2 0.4 -4.8 c0.5 -4.2 6.2 -17.6 14 -33.2 l2.3 -4.5 35.9 0 c30.9 0 36 0.2 36.7 1.5 0.5 0.8 3.6 7.4 6.9 14.5 3.4 7.2 6.7 14.2 7.5 15.7 0.8 1.4 1.5 4.7 1.5 7.3 l0 4.6 -35.7 -0.3 c-19.7 -0.2 -43.4 -0.4 -52.7 -0.6z"/>
 </g>
</svg>